
<svg xmlns="http://www.w3.org/2000/svg" version="1.1" xmlns:xlink="http://www.w3.org/1999/xlink" preserveAspectRatio="none" x="0px" y="0px" width="718px" height="400px" viewBox="0 0 718 400">
<defs>
<g id="Layer2_0_FILL">
<path fill="#FFFFFF" fill-opacity="0.0392156862745098" stroke="none" d="
M 441.7 92.1
Q 407.45 57.85 359 57.85 310.5 57.85 276.25 92.1 242 126.35 242 174.8 242 223.3 276.25 257.55 310.5 291.8 359 291.8 407.45 291.8 441.7 257.55 476 223.3 476 174.8 476 126.35 441.7 92.1
M 333.8 87.3
L 338.5 87.3 338.5 97.95 345.6 97.95 345.6 102.65 338.5 102.65 338.5 113.3 333.8 113.3 333.8 102.65 319.6 102.65 319.6 87.3 324.3 87.3 324.3 97.95 333.8 97.95 333.8 87.3
M 348.2 96.75
Q 348.25 94.1 349.5 92 350.75 89.85 352.9 88.6 355 87.35 357.65 87.3 360.3 87.35 362.4 88.6 364.55 89.85 365.8 92 367.1 94.1 367.1 96.75
L 367.1 103.85
Q 367.1 106.5 365.8 108.6 364.55 110.75 362.4 112 360.3 113.25 357.65 113.3 355 113.25 352.9 112 350.75 110.75 349.5 108.6 348.25 106.5 348.2 103.85
L 348.2 96.75
M 384 87.3
L 388.7 87.3 388.7 97.95 395.8 97.95 395.8 102.65 388.7 102.65 388.7 113.3 384 113.3 384 102.65 369.8 102.65 369.8 87.3 374.5 87.3 374.5 97.95 384 97.95 384 87.3
M 353.55 94.4
Q 352.95 95.45 352.9 96.75
L 352.9 103.85
Q 352.95 105.15 353.55 106.25 354.2 107.3 355.25 107.95 356.35 108.55 357.65 108.6 359 108.55 360.05 107.95 361.1 107.3 361.75 106.25 362.35 105.15 362.4 103.85
L 362.4 96.75
Q 362.35 95.45 361.75 94.4 361.1 93.3 360.05 92.7 359 92.05 357.65 92.05 356.35 92.05 355.25 92.7 354.2 93.3 353.55 94.4 Z"/>

<path fill="#FFFFFF" fill-opacity="0.13725490196078433" stroke="none" d="
M 388.7 87.3
L 384 87.3 384 97.95 374.5 97.95 374.5 87.3 369.8 87.3 369.8 102.65 384 102.65 384 113.3 388.7 113.3 388.7 102.65 395.8 102.65 395.8 97.95 388.7 97.95 388.7 87.3
M 349.5 92
Q 348.25 94.1 348.2 96.75
L 348.2 103.85
Q 348.25 106.5 349.5 108.6 350.75 110.75 352.9 112 355 113.25 357.65 113.3 360.3 113.25 362.4 112 364.55 110.75 365.8 108.6 367.1 106.5 367.1 103.85
L 367.1 96.75
Q 367.1 94.1 365.8 92 364.55 89.85 362.4 88.6 360.3 87.35 357.65 87.3 355 87.35 352.9 88.6 350.75 89.85 349.5 92
M 352.9 96.75
Q 352.95 95.45 353.55 94.4 354.2 93.3 355.25 92.7 356.35 92.05 357.65 92.05 359 92.05 360.05 92.7 361.1 93.3 361.75 94.4 362.35 95.45 362.4 96.75
L 362.4 103.85
Q 362.35 105.15 361.75 106.25 361.1 107.3 360.05 107.95 359 108.55 357.65 108.6 356.35 108.55 355.25 107.95 354.2 107.3 353.55 106.25 352.95 105.15 352.9 103.85
L 352.9 96.75
M 338.5 87.3
L 333.8 87.3 333.8 97.95 324.3 97.95 324.3 87.3 319.6 87.3 319.6 102.65 333.8 102.65 333.8 113.3 338.5 113.3 338.5 102.65 345.6 102.65 345.6 97.95 338.5 97.95 338.5 87.3 Z"/>
</g>

<g id="Layer1_0_FILL">
<path fill="#FFFFFF" fill-opacity="0.2980392156862745" stroke="none" d="
M 347.05 236.75
L 350.6 240.25 357.55 247.25 361.65 240.5 364.7 235.45 347.05 236.75 Z"/>

<path fill="#FFFFFF" fill-opacity="0.0784313725490196" stroke="none" d="
M 324.25 245.8
L 324.3 235.35
Q 322.65 234.85 321.05 234.25
L 321 234.3
Q 320.3 234.05 319.6 233.8
L 307.55 245.8 324.25 245.8
M 332.1 237.65
L 330.45 237.25
Q 329.65 237 328.8 236.75
L 328.8 245.8 345.95 245.8 342.85 239.5
Q 337.3 238.85 332.1 237.65
M 373.8 239.7
L 373.6 239.7
Q 372.8 239.8 372.05 239.85
L 368.5 245.8 381.7 245.8 381.7 238.45
Q 377.85 239.15 373.8 239.7
M 407.05 245.8
L 406.6 243.9 397.3 234.05
Q 396.65 234.25 396 234.5 391.2 236.3 386 237.55
L 386 245.8 407.05 245.8
M 381.7 250.6
L 365.75 250.6 361.8 257.35 381.7 257.35 381.7 250.6
M 359.65 261.1
L 358.1 263.75 354.65 263.75 353.35 261.1 328.8 261.1 328.8 273.75
Q 355.35 281.3 381.7 275.25
L 381.7 261.1 359.65 261.1
M 351.55 257.35
L 348.25 250.6 328.8 250.6 328.8 257.35 351.55 257.35
M 324.25 272.35
L 324.25 261.1 302.2 261.1 301.7 262.5
Q 312.95 268.65 324.25 272.35
M 324.25 257.35
L 324.25 250.6 305.9 250.6 303.55 257.3 324.25 257.35
M 409.5 257.35
L 408.05 250.6 386 250.6 386 257.35 409.5 257.35
M 411 264.3
L 410.3 261.1 386 261.1 386 274.15
Q 398.5 270.75 411 264.3 Z"/>

<path fill="#FFFFFF" fill-opacity="0.38823529411764707" stroke="none" d="
M 328.8 236.75
Q 326.55 236.1 324.3 235.35
L 324.25 245.8 324.25 250.6 324.25 257.35 324.25 261.1 324.25 272.35
Q 326.55 273.1 328.8 273.75
L 328.8 261.1 328.8 257.35 328.8 250.6 328.8 245.8 328.8 236.75
M 381.7 238.45
L 381.7 245.8 381.7 250.6 381.7 257.35 381.7 261.1 381.7 275.25
Q 383.85 274.75 386 274.15
L 386 261.1 386 257.35 386 250.6 386 245.8 386 237.55
Q 383.9 238.05 381.7 238.45 Z"/>

<path fill="#FFFFFF" fill-opacity="0.23921568627450981" stroke="none" d="
M 372.05 239.85
Q 369.9 240.05 367.75 240.2
L 356.35 259.85 346.6 239.95
Q 344.7 239.75 342.85 239.5
L 345.95 245.8 348.25 250.6 351.55 257.35 353.35 261.1 354.65 263.75 358.1 263.75 359.65 261.1 361.8 257.35 365.75 250.6 368.5 245.8 372.05 239.85 Z"/>

<path fill="#FFFFFF" fill-opacity="0.26666666666666666" stroke="none" d="
M 361.85 188.85
Q 361 188.9 361.3 189.7 361.8 191.15 363.55 191.85 371.5 194.95 379 192.15 376.35 191.7 373.6 191.2 368.9 191.55 364.55 189.45 363.25 188.8 361.85 188.85
M 327.65 190.35
Q 327 190.05 326.65 190.55 325.45 192.25 328.15 193 332.7 194.25 337.45 194.8 339.35 195.05 341.3 194.45 345.3 193.3 348.85 191 351.65 189.2 349.4 187.7 347.85 188.75 346.2 190 342.7 192.6 338.4 192.5 337.7 192.45 337 192.45 331.95 192.5 327.65 190.35 Z"/>

<path fill="#FFFFFF" fill-opacity="0.08627450980392157" stroke="none" d="
M 324.7 175.2
Q 324.65 175.15 324.6 175.15 319.6 176.75 315.05 178.9 313.35 179.65 311.75 180.5 292.3 190.8 292.3 205.35 292.3 219.9 311.75 230.15 315.5 232.2 319.6 233.8 320.3 234.05 321 234.3
L 321.05 234.25
Q 322.65 234.85 324.3 235.35 326.55 236.1 328.8 236.75 329.65 237 330.45 237.25
L 332.1 237.65
Q 337.3 238.85 342.85 239.5 344.7 239.75 346.6 239.95 347.55 240.05 348.5 240.1 349.5 240.15 350.6 240.25
L 347.05 236.75 364.7 235.45 361.65 240.5
Q 362.25 240.45 362.8 240.45 365.35 240.35 367.75 240.2 369.9 240.05 372.05 239.85 372.8 239.8 373.6 239.7
L 373.8 239.7
Q 377.85 239.15 381.7 238.45 383.9 238.05 386 237.55 391.2 236.3 396 234.5 396.65 234.25 397.3 234.05 401.75 232.35 405.85 230.15 425.35 219.9 425.35 205.35 425.35 198.15 420.55 191.95 414.9 194.15 403.25 194.15 391.95 194.2 379 192.15 371.5 194.95 363.55 191.85 361.8 191.15 361.3 189.7 361 188.9 361.85 188.85 363.25 188.8 364.55 189.45 368.9 191.55 373.6 191.2 367.8 190.1 361.7 188.6 338.75 183.1 324.7 175.2
M 326.65 190.55
Q 327 190.05 327.65 190.35 331.95 192.5 337 192.45 337.7 192.45 338.4 192.5 342.7 192.6 346.2 190 347.85 188.75 349.4 187.7 351.65 189.2 348.85 191 345.3 193.3 341.3 194.45 339.35 195.05 337.45 194.8 332.7 194.25 328.15 193 325.45 192.25 326.65 190.55
M 375.3 209.4
Q 375.3 203.75 379.75 199.75 384.25 195.85 390.6 195.85 396.95 195.85 401.4 199.75 405.95 203.75 405.95 209.4 405.95 215.05 401.4 219 396.95 222.95 390.6 222.95 384.25 222.95 379.75 219 375.3 215.05 375.3 209.4
M 349.75 205.75
Q 348.25 202.5 351.6 200.05 355.15 198.45 357.25 202 359.7 197.95 363 199.9 365.55 201.8 365.2 205.05 358.95 213.15 357.55 215.3 353.9 209.65 349.75 205.75
M 332.45 199.75
Q 336.95 203.75 336.95 209.4 336.95 215.05 332.45 219 327.95 222.95 321.65 222.95 315.3 222.95 310.8 219 306.3 215.05 306.3 209.4 306.3 203.75 310.8 199.75 315.3 195.85 321.65 195.85 327.95 195.85 332.45 199.75 Z"/>

<path fill="#FFFFFF" fill-opacity="0.10980392156862745" stroke="none" d="
M 336.95 209.4
Q 336.95 203.75 332.45 199.75 327.95 195.85 321.65 195.85 315.3 195.85 310.8 199.75 306.3 203.75 306.3 209.4 306.3 215.05 310.8 219 315.3 222.95 321.65 222.95 327.95 222.95 332.45 219 336.95 215.05 336.95 209.4
M 379.75 199.75
Q 375.3 203.75 375.3 209.4 375.3 215.05 379.75 219 384.25 222.95 390.6 222.95 396.95 222.95 401.4 219 405.95 215.05 405.95 209.4 405.95 203.75 401.4 199.75 396.95 195.85 390.6 195.85 384.25 195.85 379.75 199.75
M 335.85 156.25
Q 336.45 156.25 337.05 156.25
L 322.45 120.9 299 100.85 297.8 137.4 315.05 178.9
Q 319.6 176.75 324.6 175.15 310.7 167.35 314 161.85 317.2 156.25 335.85 156.25
M 372.25 160.65
Q 374.75 161.2 377.3 161.8 389.55 164.7 399.3 168.3
L 412.2 130.65 409.85 96.05 386 118.6 372.25 160.65 Z"/>

<path fill="#FFFFFF" fill-opacity="0.2196078431372549" stroke="none" d="
M 351.6 200.05
Q 348.25 202.5 349.75 205.75 353.9 209.65 357.55 215.3 358.95 213.15 365.2 205.05 365.55 201.8 363 199.9 359.7 197.95 357.25 202 355.15 198.45 351.6 200.05 Z"/>

<path fill="#FFFFFF" fill-opacity="0.06666666666666667" stroke="none" d="
M 337.05 156.25
Q 336.45 156.25 335.85 156.25 317.2 156.25 314 161.85 310.7 167.35 324.6 175.15 324.65 175.15 324.7 175.2 338.75 183.1 361.7 188.6 367.8 190.1 373.6 191.2 376.35 191.7 379 192.15 391.95 194.2 403.25 194.15 414.9 194.15 420.55 191.95 423.9 190.65 425.15 188.55 428.35 183 414.35 175.15 407.8 171.45 399.3 168.3 389.55 164.7 377.3 161.8 374.75 161.2 372.25 160.65 353 156.4 337.05 156.25 Z"/>

<path fill="#FFFFFF" fill-opacity="0.17647058823529413" stroke="none" d="
M 353.35 261.1
L 351.55 257.35 328.8 257.35 328.8 261.1 353.35 261.1
M 361.8 257.35
L 359.65 261.1 381.7 261.1 381.7 257.35 361.8 257.35
M 345.95 245.8
L 328.8 245.8 328.8 250.6 348.25 250.6 345.95 245.8
M 381.7 245.8
L 368.5 245.8 365.75 250.6 381.7 250.6 381.7 245.8
M 324.25 250.6
L 324.25 245.8 307.55 245.8 305.9 250.6 324.25 250.6
M 324.25 261.1
L 324.25 257.35 303.55 257.3 302.2 261.1 324.25 261.1
M 408.05 250.6
L 407.05 245.8 386 245.8 386 250.6 408.05 250.6
M 410.3 261.1
L 409.5 257.35 386 257.35 386 261.1 410.3 261.1 Z"/>
</g>

<g id="Layer0_0_FILL">
<path fill="#3C3C3C" stroke="none" d="
M 532.5 319.2
Q 530.15 318.15 527.45 318.15
L 514.45 318.15 514.45 344.15 527.45 344.15
Q 530.15 344.15 532.5 343.15 534.85 342.1 536.65 340.35 538.4 338.55 539.4 336.2 540.45 333.85 540.45 331.15 540.45 328.45 539.4 326.1 538.4 323.75 536.65 321.95 534.85 320.2 532.5 319.2
M 534.6 327
Q 535.7 328.85 535.75 331.15 535.7 333.45 534.6 335.35 533.5 337.2 531.65 338.3 529.75 339.4 527.45 339.45
L 519.15 339.45 519.15 322.9 527.45 322.9
Q 529.75 322.9 531.65 324 533.5 325.1 534.6 327
M 485.85 318.15
L 485.85 344.15 490.55 344.15 490.55 322.9 506.55 344.15 511.85 344.15 511.85 318.15 507.15 318.15 507.15 339.45 491.15 318.15 485.85 318.15
M 483.25 318.15
L 478.55 318.15 478.55 331.15
Q 478.5 333.45 477.4 335.35 476.3 337.2 474.45 338.3 472.55 339.4 470.25 339.45 467.95 339.4 466.05 338.3 464.2 337.2 463.1 335.35 462 333.45 461.95 331.15
L 461.95 318.15 457.25 318.15 457.25 331.15
Q 457.25 333.85 458.3 336.2 459.3 338.55 461.05 340.35 462.85 342.1 465.2 343.15 467.55 344.15 470.25 344.15 472.95 344.15 475.3 343.15 477.65 342.1 479.45 340.35 481.2 338.55 482.2 336.2 483.25 333.85 483.25 331.15
L 483.25 318.15
M 453.6 326.1
Q 452.6 323.75 450.85 321.95 449.05 320.2 446.7 319.2 444.35 318.15 441.65 318.15 438.95 318.15 436.6 319.2 434.25 320.2 432.45 321.95 430.7 323.75 429.7 326.1 428.65 328.45 428.65 331.15 428.65 333.85 429.7 336.2 430.7 338.55 432.45 340.35 434.25 342.1 436.6 343.15 438.95 344.15 441.65 344.15 444.35 344.15 446.7 343.15 449.05 342.1 450.85 340.35 452.6 338.55 453.6 336.2 454.65 333.85 454.65 331.15 454.65 328.45 453.6 326.1
M 448.8 327
Q 449.9 328.85 449.95 331.15 449.9 333.45 448.8 335.35 447.7 337.2 445.85 338.3 443.95 339.4 441.65 339.45 439.35 339.4 437.45 338.3 435.6 337.2 434.5 335.35 433.4 333.45 433.35 331.15 433.4 328.85 434.5 327 435.6 325.1 437.45 324 439.35 322.9 441.65 322.9 443.95 322.9 445.85 324 447.7 325.1 448.8 327
M 404.75 328.8
L 404.75 322.9 426.05 322.9 426.05 318.15 400.05 318.15 400.05 344.15 404.75 344.15 404.75 333.5 426.05 333.5 426.05 328.8 404.75 328.8
M 384.45 322.9
L 384.45 318.15 358.45 318.15 358.45 322.9 369.1 322.9 369.1 344.15 373.8 344.15 373.8 322.9 384.45 322.9
M 342.85 318.15
Q 340.15 318.15 337.8 319.2 335.45 320.2 333.65 321.95 331.9 323.75 330.9 326.1 329.85 328.45 329.85 331.15 329.85 333.85 330.9 336.2 331.9 338.55 333.65 340.35 335.45 342.1 337.8 343.15 340.15 344.15 342.85 344.15 345.55 344.15 347.9 343.15 350.25 342.1 352.05 340.35 353.8 338.55 354.8 336.2 355.85 333.85 355.85 331.15 355.85 328.45 354.8 326.1 353.8 323.75 352.05 321.95 350.25 320.2 347.9 319.2 345.55 318.15 342.85 318.15
M 338.65 324
Q 340.55 322.9 342.85 322.9 345.15 322.9 347.05 324 348.9 325.1 350 327 351.1 328.85 351.15 331.15 351.1 333.45 350 335.35 348.9 337.2 347.05 338.3 345.15 339.4 342.85 339.45 340.55 339.4 338.65 338.3 336.8 337.2 335.7 335.35 334.6 333.45 334.55 331.15 334.6 328.85 335.7 327 336.8 325.1 338.65 324
M 327.25 344.15
L 327.25 318.15 322.55 318.15 322.55 339.45 306.55 318.15 301.25 318.15 301.25 344.15 305.95 344.15 305.95 322.9 321.95 344.15 327.25 344.15
M 285.65 322.9
L 285.65 318.15 259.65 318.15 259.65 344.15 285.65 344.15 285.65 339.45 264.35 339.45 264.35 333.5 285.65 333.5 285.65 328.8 264.35 328.8 264.35 322.9 285.65 322.9
M 236.9 327
Q 238 325.1 239.85 324 241.75 322.9 244.05 322.9
L 257.05 322.9 257.05 318.15 244.05 318.15
Q 241.35 318.15 239 319.2 236.65 320.2 234.85 321.95 233.1 323.75 232.1 326.1 231.05 328.45 231.05 331.15 231.05 333.85 232.1 336.2 233.1 338.55 234.85 340.35 236.65 342.1 239 343.15 241.35 344.15 244.05 344.15
L 257.05 344.15 257.05 328.8 245.25 328.8 245.25 333.5 252.35 333.5 252.35 339.45 244.05 339.45
Q 241.75 339.4 239.85 338.3 238 337.2 236.9 335.35 235.8 333.45 235.75 331.15 235.8 328.85 236.9 327
M 218.7 318.15
L 213.25 318.15 203.5 344.15 208.05 344.15 209.4 340.6 222.55 340.6 223.9 344.15 228.45 344.15 218.7 318.15
M 216 323.05
L 220.8 335.9 211.15 335.9 216 323.05
M 197 319.25
Q 195.3 318.25 193.2 318.15
L 174.9 318.15 174.9 344.15 179.6 344.15 179.6 333.5 193.2 333.5
Q 195.3 333.45 197 332.4 198.7 331.35 199.7 329.65 200.7 327.95 200.75 325.85 200.7 323.75 199.7 322.05 198.7 320.3 197 319.25
M 179.6 328.8
L 179.6 322.9 193.2 322.9
Q 194.5 322.9 195.3 323.75 196.15 324.6 196.2 325.85 196.15 327.1 195.3 327.95 194.5 328.75 193.2 328.8
L 179.6 328.8 Z"/>
</g>
</defs>

<g transform="matrix( 1, 0, 0, 1, 0,0) ">
<use xlink:href="#Layer2_0_FILL"/>
</g>

<g transform="matrix( 1, 0, 0, 1, 0,0) ">
<use xlink:href="#Layer1_0_FILL"/>
</g>

<g transform="matrix( 1, 0, 0, 1, 0,0) ">
<use xlink:href="#Layer0_0_FILL"/>
</g>
</svg>
