
<svg xmlns="http://www.w3.org/2000/svg" version="1.1" xmlns:xlink="http://www.w3.org/1999/xlink" preserveAspectRatio="none" x="0px" y="0px" width="256px" height="64px" viewBox="0 0 256 64">
<defs>
<g id="Layer0_0_MEMBER_0_MEMBER_0_FILL">
<path fill="#FFFFFF" fill-opacity="0.9568627450980393" stroke="none" d="
M 769 926.8
L 755.5 926.8 755.5 1122.15 847.3 1122.15 847.3 1109.9 769 1109.9 769 926.8
M 705.4 926.8
L 691.95 926.8 691.95 1122.15 705.4 1122.15 705.4 926.8
M 1129.8 954.75
Q 1122.1 941.9 1109.15 934.25 1096.2 926.65 1080.15 926.5
L 1006.15 926.5 1006.15 1121.95 1039.05 1121.95 1039.05 1040.5 1066.05 1040.5 1101.8 1121.95 1137.7 1121.95 1100.35 1036.8
Q 1111.4 1032.7 1119.75 1024.85 1128.1 1016.95 1132.85 1006.4 1137.6 995.8 1137.7 983.5 1137.55 967.55 1129.8 954.75
M 1080.15 959.1
Q 1087 959.1 1092.55 962.35 1098.15 965.65 1101.45 971.2 1104.65 976.6 1104.75 983.5 1104.65 991.9 1099.85 998.2 1095 1004.45 1087.2 1006.9 1083.85 1007.9 1080.15 1007.9
L 1039.05 1007.9 1039.05 959.1 1080.15 959.1
M 974.5 939.2
L 974.5 926.8 883.25 926.8 883.25 1122.15 979 1122.15 979 1109.9 896.75 1109.9 896.75 1029.75 968.95 1029.75 968.95 1017.5 896.75 1017.5 896.75 939.2 974.5 939.2
M 1249.1 925.9
L 1207.6 925.9 1154.7 1121.4 1188.75 1121.4
Q 1193.15 1105.1 1197.55 1088.75 1228.35 1088.75 1259.1 1088.75 1263.5 1105.1 1267.9 1121.4
L 1301.95 1121.4 1249.1 925.9
M 1250.25 1056.2
Q 1228.35 1056.2 1206.35 1056.2 1217.35 1015.6 1228.35 975.05 1239.25 1015.6 1250.25 1056.2
M 647.95 1031.15
L 647.95 1018.9 575.75 1018.9 575.75 939.2 653.5 939.2 653.5 926.8 562.25 926.8 562.25 1122.15 575.75 1122.15 575.75 1031.15 647.95 1031.15
M 1448.6 982.9
Q 1448.45 966.95 1440.75 954.15 1433.05 941.35 1420.1 933.7 1407.15 926.05 1391.05 925.9
L 1319.1 925.9 1319.1 1121.4 1391.05 1121.4 1391.05 1121.25
Q 1392.05 1121.4 1393.1 1121.4 1409.15 1121.2 1422.1 1113.55 1435.1 1105.9 1442.75 1093.1 1450.5 1080.25 1450.65 1064.35 1450.55 1051.85 1445.75 1041.2 1440.95 1030.55 1432.35 1022.55 1440 1014.85 1444.2 1004.7 1448.55 994.55 1448.6 982.9
M 1391.05 958.55
Q 1397.9 958.6 1403.5 961.75 1409.05 965.05 1412.4 970.6 1415.6 976.1 1415.65 982.9 1415.65 989.45 1412.65 994.75 1409.6 1000.1 1404.45 1003.45 1399.25 1006.8 1392.75 1007.3 1391.9 1007.3 1391.05 1007.3
L 1352 1007.3 1352 958.55 1391.05 958.55
M 1391.05 1039.95
Q 1397.9 1040.05 1403.5 1043.2 1409.05 1046.45 1412.4 1052 1415.6 1057.5 1415.65 1064.35 1415.6 1071.15 1412.4 1076.65 1409.05 1082.2 1403.5 1085.45 1397.9 1088.65 1391.05 1088.75
L 1352 1088.75 1352 1039.95 1391.05 1039.95
M 1352 1024.35
L 1352 1024.75
Q 1351.85 1024.7 1351.8 1024.6 1351.85 1024.4 1352 1024.35
M 1568.65 933.7
Q 1555.75 926.05 1539.65 925.9
L 1467.7 925.9 1467.7 1121.4 1539.65 1121.4 1539.65 1121.25
Q 1540.65 1121.4 1541.7 1121.4 1557.75 1121.2 1570.7 1113.55 1583.65 1105.9 1591.35 1093.1 1599.1 1080.25 1599.25 1064.35 1599.15 1051.85 1594.35 1041.2 1589.5 1030.55 1580.95 1022.55 1588.55 1014.85 1592.8 1004.7 1597.15 994.55 1597.2 982.9 1597.05 966.95 1589.3 954.15 1581.65 941.35 1568.65 933.7
M 1539.65 958.55
Q 1546.5 958.6 1552.1 961.75 1557.65 965.05 1561 970.6 1564.2 976.1 1564.25 982.9 1564.25 989.45 1561.25 994.75 1558.2 1000.1 1553 1003.45 1547.85 1006.8 1541.35 1007.3 1540.45 1007.3 1539.65 1007.3
L 1500.6 1007.3 1500.6 958.55 1539.65 958.55
M 1539.65 1039.95
Q 1546.5 1040.05 1552.1 1043.2 1557.65 1046.45 1561 1052 1564.2 1057.5 1564.25 1064.35 1564.2 1071.15 1561 1076.65 1557.65 1082.2 1552.1 1085.45 1546.5 1088.65 1539.65 1088.75
L 1500.6 1088.75 1500.6 1039.95 1539.65 1039.95
M 1500.6 1024.35
L 1500.6 1024.75
Q 1500.45 1024.7 1500.35 1024.6 1500.45 1024.4 1500.6 1024.35
M 1673.75 959
L 1698.3 959 1698.3 926.5 1616.25 926.5 1616.25 959 1640.8 959 1640.8 1089.35 1616.25 1089.35 1616.25 1121.95 1698.3 1121.95 1698.3 1089.35 1673.75 1089.35 1673.75 959
M 1797.65 959.1
L 1847 959.1 1847 926.5 1715.45 926.5 1715.45 959.1 1764.8 959.1 1764.8 1121.95 1797.65 1121.95 1797.65 959.1 Z"/>
</g>
</defs>

<g transform="matrix( 0.171234130859375, 0, 0, 0.15130615234375, -78.25,-122.95) ">
<use xlink:href="#Layer0_0_MEMBER_0_MEMBER_0_FILL"/>
</g>
</svg>
