
<svg xmlns="http://www.w3.org/2000/svg" version="1.1" xmlns:xlink="http://www.w3.org/1999/xlink" preserveAspectRatio="none" x="0px" y="0px" width="550px" height="550px" viewBox="0 0 550 550">
<defs>
<path id="Layer0_0_1_STROKES" stroke="#FFFFFF" stroke-width="5.5" stroke-linejoin="round" stroke-linecap="round" fill="none" d="
M 326.05 89.85
Q 329.6 111.15 295 145.3 258.15 180.8 258.15 200.75 258.15 242.9 307 268.6 309.2 269.5 350 288.55 376.2 300.55 389.95 311.65 404.15 323.15 411.7 355.1 421.45 394.15 423.65 398.55 425.9 403 436.1 412.3 444.5 420.3 444.5 422.5 444.5 428.75 400.6 451.8 346.45 479.75 293.65 479.75 241.3 479.75 210.7 467.75 185.85 458 185.85 446.45 185.85 441.15 196.5 423.4 207.15 405.2 207.15 395.9 207.15 387.05 200.95 375.05 193.85 362.2 174.75 336.9 172.1 333.35 169.85 313.85 167.65 294.35 161.9 286.35 150.35 269.95 123.3 246.45 105.55 230.9 105.55 216.7 105.55 189.65 141.9 169.7 160.55 159.5 184.5 149.75
L 209.8 104.5
Q 233.3 69 266.6 70.35 265.4724609375 91.0076171875 238.65 149.3 260.4 122.25 276.35 109.8 304.659375 84.855078125 326.05 89.85 Z
M 256.2 368.4
L 282 368.4 282 406.05 318.3 406.05 318.3 368.4 343.2 368.4 299.75 324.95 256.2 368.4 Z"/>
</defs>

<g transform="matrix( 1, 0, 0, 1, 0,0) ">
<use xlink:href="#Layer0_0_1_STROKES"/>
</g>
</svg>
