
<svg xmlns="http://www.w3.org/2000/svg" version="1.1" xmlns:xlink="http://www.w3.org/1999/xlink" preserveAspectRatio="none" x="0px" y="0px" width="512px" height="512px" viewBox="0 0 512 512">
<defs>
<g id="Layer0_0_FILL">
<path fill="#fff" fill-opacity="0.10980392156862745" stroke="none" d="
M 256 283.45
Q 192.4 283.45 147.45 328.4 108.15 367.7 103.25 421.2 102.50625 420.514453125 101.75 419.8 166.202734375 481 256 481 344.788671875 481 408.8 421.2 403.85 367.7 364.55 328.4 319.6 283.45 256 283.45
M 294.7 170.45
Q 278.7 154.45 256 154.45 233.3 154.45 217.25 170.45 201.25 186.5 201.25 209.2 201.25 231.9 217.25 247.9 233.3 263.95 256 263.95 278.7 263.95 294.7 247.9 310.75 231.9 310.75 209.2 310.75 186.5 294.7 170.45 Z"/>

<path fill="#fff" fill-opacity=".8" stroke="none" d="
M 481 256
Q 481 162.8 415.1 96.9 349.2 31 256 31 162.8 31 96.9 96.9 31 162.8 31 256 31 349.2 96.9 415.1 97.1212890625 415.3212890625 97.35 415.55 99.55 417.6875 101.75 419.8 102.50625 420.514453125 103.25 421.2 108.15 367.7 147.45 328.4 192.4 283.45 256 283.45 319.6 283.45 364.55 328.4 403.85 367.7 408.8 421.2 411.95 418.25 415.1 415.1 481 349.2 481 256
M 256 154.45
Q 278.7 154.45 294.7 170.45 310.75 186.5 310.75 209.2 310.75 231.9 294.7 247.9 278.7 263.95 256 263.95 233.3 263.95 217.25 247.9 201.25 231.9 201.25 209.2 201.25 186.5 217.25 170.45 233.3 154.45 256 154.45 Z"/>
</g>
</defs>

<g transform="matrix( 1, 0, 0, 1, 0,0) ">
<use xlink:href="#Layer0_0_FILL"/>
</g>
</svg>
